<svg id="svg" version="1.1" xmlns="http://www.w3.org/2000/svg" xmlns:xlink="http://www.w3.org/1999/xlink" width="400" height="115.83710407239819" viewBox="0, 0, 400,115.83710407239819"><g id="svgg"><path id="path0" d="M53.994 33.710 C 53.306 34.830,49.574 41.652,45.702 48.869 C 41.829 56.086,37.258 64.536,35.542 67.647 L 32.423 73.303 57.162 73.289 L 81.900 73.275 92.518 53.606 L 103.136 33.937 103.152 53.620 L 103.167 73.303 106.787 73.303 C 108.778 73.303,110.407 72.927,110.407 72.468 C 110.407 72.008,111.664 72.259,113.201 73.026 C 117.874 75.357,125.505 74.242,128.603 70.776 C 139.848 58.190,128.199 36.219,114.005 43.242 L 110.407 45.022 110.407 38.348 L 110.407 31.674 82.826 31.674 L 55.245 31.674 53.994 33.710 M219.005 38.949 L 219.005 46.224 217.116 44.465 C 205.936 34.049,191.186 51.366,198.157 66.723 C 201.635 74.385,214.291 77.153,218.312 71.131 C 218.722 70.517,218.982 70.742,218.991 71.719 C 219.002 72.961,219.785 73.303,222.624 73.303 L 226.244 73.303 226.244 52.489 L 226.244 31.674 222.624 31.674 L 219.005 31.674 219.005 38.949 M144.003 42.490 C 140.319 43.415,136.982 46.609,136.156 50.000 C 135.296 53.532,141.210 53.693,144.423 50.226 C 147.858 46.520,155.917 48.144,154.351 52.227 C 154.073 52.950,153.846 53.682,153.846 53.854 C 153.846 54.026,150.690 54.676,146.833 55.297 C 138.016 56.718,134.842 59.328,134.842 65.158 C 134.842 72.903,144.104 76.953,152.219 72.756 C 154.795 71.424,155.093 71.424,155.839 72.756 C 156.477 73.897,158.178 74.208,163.772 74.208 C 174.278 74.208,173.756 74.807,173.756 62.758 C 173.756 51.331,175.279 47.964,180.451 47.964 C 184.530 47.964,185.520 50.830,185.520 62.645 L 185.520 73.303 189.207 73.303 L 192.894 73.303 192.601 60.100 C 192.224 43.116,187.715 38.115,177.385 43.226 C 174.574 44.617,173.756 44.741,173.756 43.778 C 173.756 42.930,172.603 42.534,170.136 42.534 L 166.516 42.534 166.516 55.204 L 166.516 67.873 164.370 67.873 C 162.272 67.873,162.213 67.651,161.772 58.145 C 161.523 52.794,161.014 47.689,160.641 46.799 C 159.143 43.232,150.236 40.925,144.003 42.490 M239.474 42.519 C 227.956 46.172,225.927 66.007,236.417 72.403 C 244.567 77.372,254.436 73.222,257.412 63.575 C 258.247 60.868,251.018 60.423,250.060 63.122 C 246.971 71.833,237.104 68.433,237.104 58.657 C 237.104 48.815,244.829 44.149,249.449 51.200 C 251.520 54.359,258.369 54.495,257.433 51.357 C 255.242 44.018,247.211 40.065,239.474 42.519 M268.175 42.622 C 264.899 43.570,260.633 48.167,260.633 50.748 C 260.633 53.465,266.254 53.120,269.148 50.226 C 272.580 46.794,278.733 47.701,278.733 51.638 C 278.733 53.743,276.571 54.717,269.872 55.634 C 262.825 56.598,259.729 59.505,259.729 65.158 C 259.729 72.922,268.849 77.026,276.877 72.875 C 279.149 71.700,279.588 71.700,280.563 72.875 C 281.350 73.824,283.530 74.205,288.120 74.196 C 299.192 74.175,298.643 74.786,298.643 62.496 C 298.643 51.088,299.929 47.964,304.628 47.964 C 308.115 47.964,308.597 49.635,308.597 61.719 L 308.597 73.303 312.106 73.303 L 315.614 73.303 316.000 62.486 C 316.418 50.747,317.529 47.964,321.795 47.964 C 326.018 47.964,326.697 49.914,326.697 62.056 L 326.697 73.303 330.317 73.303 L 333.937 73.303 333.937 61.145 C 333.937 54.458,333.532 47.922,333.037 46.621 C 331.163 41.691,321.263 40.327,316.894 44.397 C 315.656 45.550,314.822 45.803,314.417 45.147 C 312.172 41.515,303.235 41.103,299.626 44.465 C 297.754 46.209,297.738 46.209,297.738 44.379 C 297.738 42.874,297.154 42.534,294.570 42.534 L 291.403 42.534 291.403 55.204 L 291.403 67.873 288.688 67.873 L 285.973 67.873 285.973 58.041 C 285.973 43.620,280.651 39.010,268.175 42.622 M349.095 43.290 C 346.437 44.671,345.701 44.781,345.701 43.794 C 345.701 42.957,344.637 42.534,342.534 42.534 L 339.367 42.534 339.367 63.801 L 339.367 85.068 342.986 85.068 L 346.606 85.068 346.606 78.257 L 346.606 71.447 349.276 72.827 C 359.143 77.930,368.326 70.806,368.326 58.049 C 368.326 45.677,358.706 38.293,349.095 43.290 M121.901 49.324 C 126.212 52.343,126.744 61.648,122.846 65.837 C 119.065 69.901,112.212 67.700,110.771 61.959 C 108.502 52.918,115.573 44.891,121.901 49.324 M215.114 49.324 C 219.375 52.309,219.942 60.762,216.200 65.519 C 212.659 70.021,205.482 67.930,203.984 61.959 C 201.714 52.918,208.786 44.891,215.114 49.324 M358.547 50.715 C 361.837 54.005,362.008 62.544,358.854 66.029 C 354.973 70.318,347.989 67.635,346.676 61.349 C 344.501 50.942,352.030 44.198,358.547 50.715 M277.299 66.148 C 274.443 69.303,266.968 68.229,266.968 64.662 C 266.968 62.089,267.875 61.485,273.723 60.158 L 278.281 59.125 278.570 61.774 C 278.744 63.360,278.234 65.115,277.299 66.148 M153.846 62.379 C 153.846 65.989,151.689 67.873,147.557 67.873 C 141.411 67.873,140.207 62.398,145.985 60.726 C 151.862 59.026,153.846 59.443,153.846 62.379 " stroke="none" fill="#000000" fill-rule="evenodd"></path></g></svg>